<?xml version="1.0" encoding="UTF-8" standalone="no"?>
<!DOCTYPE svg PUBLIC "-//W3C//DTD SVG 1.1//EN"
 "http://www.w3.org/Graphics/SVG/1.1/DTD/svg11.dtd">
<!-- Generated by graphviz version 2.40.1 (20161225.0304)
 -->
<!-- Title: controllers_diagram Pages: 1 -->
<svg width="701pt" height="677pt"
 viewBox="0.00 0.00 700.83 677.00" xmlns="http://www.w3.org/2000/svg" xmlns:xlink="http://www.w3.org/1999/xlink">
<g id="graph0" class="graph" transform="scale(1 1) rotate(0) translate(4 673)">
<title>controllers_diagram</title>
<polygon fill="transparent" stroke="transparent" points="-4,4 -4,-673 696.8281,-673 696.8281,4 -4,4"/>
<!-- _diagram_info -->
<g id="node1" class="node">
<title>_diagram_info</title>
<text text-anchor="start" x="476" y="-58.6" font-family="Times,serif" font-size="13.00" fill="#000000">Controllers diagram</text>
<text text-anchor="start" x="476" y="-45.6" font-family="Times,serif" font-size="13.00" fill="#000000">Date: Jun 12 2019 &#45; 09:48</text>
<text text-anchor="start" x="476" y="-32.6" font-family="Times,serif" font-size="13.00" fill="#000000">Migration version: 20190315123325</text>
<text text-anchor="start" x="476" y="-19.6" font-family="Times,serif" font-size="13.00" fill="#000000">Generated by RailRoady 1.5.3</text>
<text text-anchor="start" x="476" y="-6.6" font-family="Times,serif" font-size="13.00" fill="#000000">http://railroady.prestonlee.com</text>
</g>
<!-- ApplicationController -->
<g id="node2" class="node">
<title>ApplicationController</title>
<path fill="none" stroke="#000000" d="M162.8009,-211.5169C162.8009,-211.5169 278.4425,-211.5169 278.4425,-211.5169 284.4425,-211.5169 290.4425,-217.5169 290.4425,-223.5169 290.4425,-223.5169 290.4425,-317.5169 290.4425,-317.5169 290.4425,-323.5169 284.4425,-329.5169 278.4425,-329.5169 278.4425,-329.5169 162.8009,-329.5169 162.8009,-329.5169 156.8009,-329.5169 150.8009,-323.5169 150.8009,-317.5169 150.8009,-317.5169 150.8009,-223.5169 150.8009,-223.5169 150.8009,-217.5169 156.8009,-211.5169 162.8009,-211.5169"/>
<text text-anchor="middle" x="220.6217" y="-314.3169" font-family="Times,serif" font-size="14.00" fill="#000000">ApplicationController</text>
<polyline fill="none" stroke="#000000" points="150.8009,-307.5169 290.4425,-307.5169 "/>
<text text-anchor="start" x="158.8009" y="-292.3169" font-family="Times,serif" font-size="14.00" fill="#000000">current_user</text>
<text text-anchor="start" x="158.8009" y="-278.3169" font-family="Times,serif" font-size="14.00" fill="#000000">logged_in?</text>
<text text-anchor="start" x="158.8009" y="-264.3169" font-family="Times,serif" font-size="14.00" fill="#000000">require_user</text>
<polyline fill="none" stroke="#000000" points="150.8009,-257.5169 290.4425,-257.5169 "/>
<polyline fill="none" stroke="#000000" points="150.8009,-233.5169 290.4425,-233.5169 "/>
<text text-anchor="start" x="158.8009" y="-218.3169" font-family="Times,serif" font-size="14.00" fill="#000000">_layout</text>
</g>
<!-- PagesController -->
<g id="node3" class="node">
<title>PagesController</title>
<path fill="none" stroke="#000000" d="M348.6112,-115.8853C348.6112,-115.8853 430.8182,-115.8853 430.8182,-115.8853 436.8182,-115.8853 442.8182,-121.8853 442.8182,-127.8853 442.8182,-127.8853 442.8182,-193.8853 442.8182,-193.8853 442.8182,-199.8853 436.8182,-205.8853 430.8182,-205.8853 430.8182,-205.8853 348.6112,-205.8853 348.6112,-205.8853 342.6112,-205.8853 336.6112,-199.8853 336.6112,-193.8853 336.6112,-193.8853 336.6112,-127.8853 336.6112,-127.8853 336.6112,-121.8853 342.6112,-115.8853 348.6112,-115.8853"/>
<text text-anchor="middle" x="389.7147" y="-190.6853" font-family="Times,serif" font-size="14.00" fill="#000000">PagesController</text>
<polyline fill="none" stroke="#000000" points="336.6112,-183.8853 442.8182,-183.8853 "/>
<text text-anchor="start" x="344.6112" y="-168.6853" font-family="Times,serif" font-size="14.00" fill="#000000">index</text>
<polyline fill="none" stroke="#000000" points="336.6112,-161.8853 442.8182,-161.8853 "/>
<polyline fill="none" stroke="#000000" points="336.6112,-137.8853 442.8182,-137.8853 "/>
<text text-anchor="start" x="344.6112" y="-122.6853" font-family="Times,serif" font-size="14.00" fill="#000000">_layout</text>
</g>
<!-- ApplicationController&#45;&gt;PagesController -->
<g id="edge1" class="edge">
<title>ApplicationController&#45;&gt;PagesController</title>
<path fill="none" stroke="#000000" d="M290.8634,-224.9757C306.1074,-215.0922 321.9905,-204.7944 336.452,-195.4182"/>
</g>
<!-- PetitionsController -->
<g id="node4" class="node">
<title>PetitionsController</title>
<path fill="none" stroke="#000000" d="M61.9033,-.5C61.9033,-.5 160.455,-.5 160.455,-.5 166.455,-.5 172.455,-6.5 172.455,-12.5 172.455,-12.5 172.455,-190.5 172.455,-190.5 172.455,-196.5 166.455,-202.5 160.455,-202.5 160.455,-202.5 61.9033,-202.5 61.9033,-202.5 55.9033,-202.5 49.9033,-196.5 49.9033,-190.5 49.9033,-190.5 49.9033,-12.5 49.9033,-12.5 49.9033,-6.5 55.9033,-.5 61.9033,-.5"/>
<text text-anchor="middle" x="111.1791" y="-187.3" font-family="Times,serif" font-size="14.00" fill="#000000">PetitionsController</text>
<polyline fill="none" stroke="#000000" points="49.9033,-180.5 172.455,-180.5 "/>
<text text-anchor="start" x="57.9033" y="-165.3" font-family="Times,serif" font-size="14.00" fill="#000000">create</text>
<text text-anchor="start" x="57.9033" y="-151.3" font-family="Times,serif" font-size="14.00" fill="#000000">destroy</text>
<text text-anchor="start" x="57.9033" y="-137.3" font-family="Times,serif" font-size="14.00" fill="#000000">index</text>
<text text-anchor="start" x="57.9033" y="-123.3" font-family="Times,serif" font-size="14.00" fill="#000000">new</text>
<text text-anchor="start" x="57.9033" y="-109.3" font-family="Times,serif" font-size="14.00" fill="#000000">show</text>
<text text-anchor="start" x="57.9033" y="-95.3" font-family="Times,serif" font-size="14.00" fill="#000000">support</text>
<text text-anchor="start" x="57.9033" y="-81.3" font-family="Times,serif" font-size="14.00" fill="#000000">unsupport</text>
<polyline fill="none" stroke="#000000" points="49.9033,-74.5 172.455,-74.5 "/>
<polyline fill="none" stroke="#000000" points="49.9033,-50.5 172.455,-50.5 "/>
<text text-anchor="start" x="57.9033" y="-35.3" font-family="Times,serif" font-size="14.00" fill="#000000">_layout</text>
<text text-anchor="start" x="57.9033" y="-21.3" font-family="Times,serif" font-size="14.00" fill="#000000">petition_params</text>
<text text-anchor="start" x="57.9033" y="-7.3" font-family="Times,serif" font-size="14.00" fill="#000000">set_article</text>
</g>
<!-- ApplicationController&#45;&gt;PetitionsController -->
<g id="edge2" class="edge">
<title>ApplicationController&#45;&gt;PetitionsController</title>
<path fill="none" stroke="#000000" d="M182.344,-211.403C179.1387,-206.4529 175.8504,-201.3746 172.529,-196.2453"/>
</g>
<!-- UsersController -->
<g id="node5" class="node">
<title>UsersController</title>
<path fill="none" stroke="#000000" d="M12,-308.7131C12,-308.7131 93.4277,-308.7131 93.4277,-308.7131 99.4277,-308.7131 105.4277,-314.7131 105.4277,-320.7131 105.4277,-320.7131 105.4277,-442.7131 105.4277,-442.7131 105.4277,-448.7131 99.4277,-454.7131 93.4277,-454.7131 93.4277,-454.7131 12,-454.7131 12,-454.7131 6,-454.7131 0,-448.7131 0,-442.7131 0,-442.7131 0,-320.7131 0,-320.7131 0,-314.7131 6,-308.7131 12,-308.7131"/>
<text text-anchor="middle" x="52.7139" y="-439.5131" font-family="Times,serif" font-size="14.00" fill="#000000">UsersController</text>
<polyline fill="none" stroke="#000000" points="0,-432.7131 105.4277,-432.7131 "/>
<text text-anchor="start" x="8" y="-417.5131" font-family="Times,serif" font-size="14.00" fill="#000000">create</text>
<text text-anchor="start" x="8" y="-403.5131" font-family="Times,serif" font-size="14.00" fill="#000000">edit</text>
<text text-anchor="start" x="8" y="-389.5131" font-family="Times,serif" font-size="14.00" fill="#000000">new</text>
<text text-anchor="start" x="8" y="-375.5131" font-family="Times,serif" font-size="14.00" fill="#000000">show</text>
<polyline fill="none" stroke="#000000" points="0,-368.7131 105.4277,-368.7131 "/>
<polyline fill="none" stroke="#000000" points="0,-344.7131 105.4277,-344.7131 "/>
<text text-anchor="start" x="8" y="-329.5131" font-family="Times,serif" font-size="14.00" fill="#000000">_layout</text>
<text text-anchor="start" x="8" y="-315.5131" font-family="Times,serif" font-size="14.00" fill="#000000">user_params</text>
</g>
<!-- ApplicationController&#45;&gt;UsersController -->
<g id="edge3" class="edge">
<title>ApplicationController&#45;&gt;UsersController</title>
<path fill="none" stroke="#000000" d="M150.3866,-317.0298C135.379,-326.9685 119.7704,-337.3053 105.5493,-346.7231"/>
</g>
<!-- SessionsController -->
<g id="node6" class="node">
<title>SessionsController</title>
<path fill="none" stroke="#000000" d="M282.9049,-379.663C282.9049,-379.663 380.6842,-379.663 380.6842,-379.663 386.6842,-379.663 392.6842,-385.663 392.6842,-391.663 392.6842,-391.663 392.6842,-485.663 392.6842,-485.663 392.6842,-491.663 386.6842,-497.663 380.6842,-497.663 380.6842,-497.663 282.9049,-497.663 282.9049,-497.663 276.9049,-497.663 270.9049,-491.663 270.9049,-485.663 270.9049,-485.663 270.9049,-391.663 270.9049,-391.663 270.9049,-385.663 276.9049,-379.663 282.9049,-379.663"/>
<text text-anchor="middle" x="331.7946" y="-482.463" font-family="Times,serif" font-size="14.00" fill="#000000">SessionsController</text>
<polyline fill="none" stroke="#000000" points="270.9049,-475.663 392.6842,-475.663 "/>
<text text-anchor="start" x="278.9049" y="-460.463" font-family="Times,serif" font-size="14.00" fill="#000000">create</text>
<text text-anchor="start" x="278.9049" y="-446.463" font-family="Times,serif" font-size="14.00" fill="#000000">destroy</text>
<text text-anchor="start" x="278.9049" y="-432.463" font-family="Times,serif" font-size="14.00" fill="#000000">new</text>
<polyline fill="none" stroke="#000000" points="270.9049,-425.663 392.6842,-425.663 "/>
<polyline fill="none" stroke="#000000" points="270.9049,-401.663 392.6842,-401.663 "/>
<text text-anchor="start" x="278.9049" y="-386.463" font-family="Times,serif" font-size="14.00" fill="#000000">_layout</text>
</g>
<!-- ApplicationController&#45;&gt;SessionsController -->
<g id="edge4" class="edge">
<title>ApplicationController&#45;&gt;SessionsController</title>
<path fill="none" stroke="#000000" d="M259.8171,-329.7989C270.5071,-345.9672 282.0852,-363.4789 292.7659,-379.6331"/>
</g>
<!-- ActiveStorage::DirectUploadsController -->
<g id="node7" class="node">
<title>ActiveStorage::DirectUploadsController</title>
<path fill="none" stroke="#000000" d="M454,-260.5C454,-260.5 673.0488,-260.5 673.0488,-260.5 679.0488,-260.5 685.0488,-266.5 685.0488,-272.5 685.0488,-272.5 685.0488,-366.5 685.0488,-366.5 685.0488,-372.5 679.0488,-378.5 673.0488,-378.5 673.0488,-378.5 454,-378.5 454,-378.5 448,-378.5 442,-372.5 442,-366.5 442,-366.5 442,-272.5 442,-272.5 442,-266.5 448,-260.5 454,-260.5"/>
<text text-anchor="middle" x="563.5244" y="-363.3" font-family="Times,serif" font-size="14.00" fill="#000000">ActiveStorage::DirectUploadsController</text>
<polyline fill="none" stroke="#000000" points="442,-356.5 685.0488,-356.5 "/>
<text text-anchor="start" x="450" y="-341.3" font-family="Times,serif" font-size="14.00" fill="#000000">create</text>
<polyline fill="none" stroke="#000000" points="442,-334.5 685.0488,-334.5 "/>
<polyline fill="none" stroke="#000000" points="442,-310.5 685.0488,-310.5 "/>
<text text-anchor="start" x="450" y="-295.3" font-family="Times,serif" font-size="14.00" fill="#000000">_layout</text>
<text text-anchor="start" x="450" y="-281.3" font-family="Times,serif" font-size="14.00" fill="#000000">blob_args</text>
<text text-anchor="start" x="450" y="-267.3" font-family="Times,serif" font-size="14.00" fill="#000000">direct_upload_json</text>
</g>
<!-- ActiveStorage::BaseController -->
<g id="node8" class="node">
<title>ActiveStorage::BaseController</title>
<path fill="none" stroke="#000000" d="M506,-130.5C506,-130.5 670.6211,-130.5 670.6211,-130.5 676.6211,-130.5 682.6211,-136.5 682.6211,-142.5 682.6211,-142.5 682.6211,-210.5 682.6211,-210.5 682.6211,-216.5 676.6211,-222.5 670.6211,-222.5 670.6211,-222.5 506,-222.5 506,-222.5 500,-222.5 494,-216.5 494,-210.5 494,-210.5 494,-142.5 494,-142.5 494,-136.5 500,-130.5 506,-130.5"/>
<text text-anchor="middle" x="588.3105" y="-207.3" font-family="Times,serif" font-size="14.00" fill="#000000">ActiveStorage::BaseController</text>
<polyline fill="none" stroke="#000000" points="494,-200.5 682.6211,-200.5 "/>
<polyline fill="none" stroke="#000000" points="494,-176.5 682.6211,-176.5 "/>
<polyline fill="none" stroke="#000000" points="494,-152.5 682.6211,-152.5 "/>
<text text-anchor="start" x="502" y="-137.3" font-family="Times,serif" font-size="14.00" fill="#000000">_layout</text>
</g>
<!-- ActiveStorage::BlobsController -->
<g id="node9" class="node">
<title>ActiveStorage::BlobsController</title>
<path fill="none" stroke="#000000" d="M246,-.5C246,-.5 416.083,-.5 416.083,-.5 422.083,-.5 428.083,-6.5 428.083,-12.5 428.083,-12.5 428.083,-78.5 428.083,-78.5 428.083,-84.5 422.083,-90.5 416.083,-90.5 416.083,-90.5 246,-90.5 246,-90.5 240,-90.5 234,-84.5 234,-78.5 234,-78.5 234,-12.5 234,-12.5 234,-6.5 240,-.5 246,-.5"/>
<text text-anchor="middle" x="331.0415" y="-75.3" font-family="Times,serif" font-size="14.00" fill="#000000">ActiveStorage::BlobsController</text>
<polyline fill="none" stroke="#000000" points="234,-68.5 428.083,-68.5 "/>
<text text-anchor="start" x="242" y="-53.3" font-family="Times,serif" font-size="14.00" fill="#000000">show</text>
<polyline fill="none" stroke="#000000" points="234,-46.5 428.083,-46.5 "/>
<polyline fill="none" stroke="#000000" points="234,-22.5 428.083,-22.5 "/>
<text text-anchor="start" x="242" y="-7.3" font-family="Times,serif" font-size="14.00" fill="#000000">_layout</text>
</g>
<!-- ActiveStorage::RepresentationsController -->
<g id="node10" class="node">
<title>ActiveStorage::RepresentationsController</title>
<path fill="none" stroke="#000000" d="M454,-416.5C454,-416.5 680.8281,-416.5 680.8281,-416.5 686.8281,-416.5 692.8281,-422.5 692.8281,-428.5 692.8281,-428.5 692.8281,-494.5 692.8281,-494.5 692.8281,-500.5 686.8281,-506.5 680.8281,-506.5 680.8281,-506.5 454,-506.5 454,-506.5 448,-506.5 442,-500.5 442,-494.5 442,-494.5 442,-428.5 442,-428.5 442,-422.5 448,-416.5 454,-416.5"/>
<text text-anchor="middle" x="567.4141" y="-491.3" font-family="Times,serif" font-size="14.00" fill="#000000">ActiveStorage::RepresentationsController</text>
<polyline fill="none" stroke="#000000" points="442,-484.5 692.8281,-484.5 "/>
<text text-anchor="start" x="450" y="-469.3" font-family="Times,serif" font-size="14.00" fill="#000000">show</text>
<polyline fill="none" stroke="#000000" points="442,-462.5 692.8281,-462.5 "/>
<polyline fill="none" stroke="#000000" points="442,-438.5 692.8281,-438.5 "/>
<text text-anchor="start" x="450" y="-423.3" font-family="Times,serif" font-size="14.00" fill="#000000">_layout</text>
</g>
<!-- ActiveStorage::DiskController -->
<g id="node11" class="node">
<title>ActiveStorage::DiskController</title>
<path fill="none" stroke="#000000" d="M64,-494.5C64,-494.5 227.8555,-494.5 227.8555,-494.5 233.8555,-494.5 239.8555,-500.5 239.8555,-506.5 239.8555,-506.5 239.8555,-656.5 239.8555,-656.5 239.8555,-662.5 233.8555,-668.5 227.8555,-668.5 227.8555,-668.5 64,-668.5 64,-668.5 58,-668.5 52,-662.5 52,-656.5 52,-656.5 52,-506.5 52,-506.5 52,-500.5 58,-494.5 64,-494.5"/>
<text text-anchor="middle" x="145.9277" y="-653.3" font-family="Times,serif" font-size="14.00" fill="#000000">ActiveStorage::DiskController</text>
<polyline fill="none" stroke="#000000" points="52,-646.5 239.8555,-646.5 "/>
<text text-anchor="start" x="60" y="-631.3" font-family="Times,serif" font-size="14.00" fill="#000000">show</text>
<text text-anchor="start" x="60" y="-617.3" font-family="Times,serif" font-size="14.00" fill="#000000">update</text>
<polyline fill="none" stroke="#000000" points="52,-610.5 239.8555,-610.5 "/>
<polyline fill="none" stroke="#000000" points="52,-586.5 239.8555,-586.5 "/>
<text text-anchor="start" x="60" y="-571.3" font-family="Times,serif" font-size="14.00" fill="#000000">_layout</text>
<text text-anchor="start" x="60" y="-557.3" font-family="Times,serif" font-size="14.00" fill="#000000">acceptable_content?</text>
<text text-anchor="start" x="60" y="-543.3" font-family="Times,serif" font-size="14.00" fill="#000000">decode_verified_key</text>
<text text-anchor="start" x="60" y="-529.3" font-family="Times,serif" font-size="14.00" fill="#000000">decode_verified_token</text>
<text text-anchor="start" x="60" y="-515.3" font-family="Times,serif" font-size="14.00" fill="#000000">disk_service</text>
<text text-anchor="start" x="60" y="-501.3" font-family="Times,serif" font-size="14.00" fill="#000000">serve_file</text>
</g>
</g>
</svg>
