<?xml version="1.0" encoding="UTF-8" standalone="no"?>
<!DOCTYPE svg PUBLIC "-//W3C//DTD SVG 1.1//EN"
 "http://www.w3.org/Graphics/SVG/1.1/DTD/svg11.dtd">
<!-- Generated by graphviz version 2.40.1 (20161225.0304)
 -->
<!-- Title: models_diagram Pages: 1 -->
<svg width="2474pt" height="554pt"
 viewBox="0.00 0.00 2473.56 554.00" xmlns="http://www.w3.org/2000/svg" xmlns:xlink="http://www.w3.org/1999/xlink">
<g id="graph0" class="graph" transform="scale(1 1) rotate(0) translate(4 550)">
<title>models_diagram</title>
<polygon fill="transparent" stroke="transparent" points="-4,4 -4,-550 2469.5569,-550 2469.5569,4 -4,4"/>
<!-- _diagram_info -->
<g id="node1" class="node">
<title>_diagram_info</title>
<text text-anchor="start" x="8" y="-468.6" font-family="Times,serif" font-size="13.00" fill="#000000">Models diagram</text>
<text text-anchor="start" x="8" y="-455.6" font-family="Times,serif" font-size="13.00" fill="#000000">Date: Jun 12 2019 &#45; 09:48</text>
<text text-anchor="start" x="8" y="-442.6" font-family="Times,serif" font-size="13.00" fill="#000000">Migration version: 20190315123325</text>
<text text-anchor="start" x="8" y="-429.6" font-family="Times,serif" font-size="13.00" fill="#000000">Generated by RailRoady 1.5.3</text>
<text text-anchor="start" x="8" y="-416.6" font-family="Times,serif" font-size="13.00" fill="#000000">http://railroady.prestonlee.com</text>
</g>
<!-- Petition -->
<g id="node2" class="node">
<title>Petition</title>
<path fill="none" stroke="#000000" d="M193.5627,-.5C193.5627,-.5 449.8127,-.5 449.8127,-.5 455.8127,-.5 461.8127,-6.5 461.8127,-12.5 461.8127,-12.5 461.8127,-298.5 461.8127,-298.5 461.8127,-304.5 455.8127,-310.5 449.8127,-310.5 449.8127,-310.5 193.5627,-310.5 193.5627,-310.5 187.5627,-310.5 181.5627,-304.5 181.5627,-298.5 181.5627,-298.5 181.5627,-12.5 181.5627,-12.5 181.5627,-6.5 187.5627,-.5 193.5627,-.5"/>
<text text-anchor="middle" x="321.6877" y="-295.3" font-family="Times,serif" font-size="14.00" fill="#000000">Petition</text>
<polyline fill="none" stroke="#000000" points="181.5627,-288.5 461.8127,-288.5 "/>
<text text-anchor="start" x="189.5627" y="-273.3" font-family="Times,serif" font-size="14.00" fill="#000000">state :varchar(255)</text>
<text text-anchor="start" x="189.5627" y="-259.3" font-family="Times,serif" font-size="14.00" fill="#000000">title :varchar(255)</text>
<text text-anchor="start" x="189.5627" y="-245.3" font-family="Times,serif" font-size="14.00" fill="#000000">description :text</text>
<text text-anchor="start" x="189.5627" y="-231.3" font-family="Times,serif" font-size="14.00" fill="#000000">updated_at :datetime</text>
<text text-anchor="start" x="189.5627" y="-217.3" font-family="Times,serif" font-size="14.00" fill="#000000">user_id :int(11)</text>
<text text-anchor="start" x="189.5627" y="-203.3" font-family="Times,serif" font-size="14.00" fill="#000000">cached_votes_total :int(11)</text>
<text text-anchor="start" x="189.5627" y="-189.3" font-family="Times,serif" font-size="14.00" fill="#000000">cached_votes_score :int(11)</text>
<text text-anchor="start" x="189.5627" y="-175.3" font-family="Times,serif" font-size="14.00" fill="#000000">cached_votes_up :int(11)</text>
<text text-anchor="start" x="189.5627" y="-161.3" font-family="Times,serif" font-size="14.00" fill="#000000">cached_votes_down :int(11)</text>
<text text-anchor="start" x="189.5627" y="-147.3" font-family="Times,serif" font-size="14.00" fill="#000000">cached_weighted_score :int(11)</text>
<text text-anchor="start" x="189.5627" y="-133.3" font-family="Times,serif" font-size="14.00" fill="#000000">cached_weighted_total :int(11)</text>
<text text-anchor="start" x="189.5627" y="-119.3" font-family="Times,serif" font-size="14.00" fill="#000000">cached_weighted_average :float</text>
<text text-anchor="start" x="189.5627" y="-105.3" font-family="Times,serif" font-size="14.00" fill="#000000">cached_scoped_subscribe_votes_total :int(11)</text>
<text text-anchor="start" x="189.5627" y="-91.3" font-family="Times,serif" font-size="14.00" fill="#000000">cached_scoped_subscribe_votes_score :int(11)</text>
<text text-anchor="start" x="189.5627" y="-77.3" font-family="Times,serif" font-size="14.00" fill="#000000">cached_scoped_subscribe_votes_up :int(11)</text>
<text text-anchor="start" x="189.5627" y="-63.3" font-family="Times,serif" font-size="14.00" fill="#000000">cached_scoped_subscribe_votes_down :int(11)</text>
<text text-anchor="start" x="189.5627" y="-49.3" font-family="Times,serif" font-size="14.00" fill="#000000">cached_weighted_subscribe_score :int(11)</text>
<text text-anchor="start" x="189.5627" y="-35.3" font-family="Times,serif" font-size="14.00" fill="#000000">cached_weighted_subscribe_total :int(11)</text>
<text text-anchor="start" x="189.5627" y="-21.3" font-family="Times,serif" font-size="14.00" fill="#000000">cached_weighted_subscribe_average :float</text>
<text text-anchor="start" x="189.5627" y="-7.3" font-family="Times,serif" font-size="14.00" fill="#000000">id :bigint(20)</text>
</g>
<!-- ApplicationRecord -->
<g id="node3" class="node">
<title>ApplicationRecord</title>
<ellipse fill="none" stroke="#000000" cx="512.6877" cy="-446.5" rx="77.2916" ry="18"/>
<text text-anchor="middle" x="512.6877" y="-442.3" font-family="Times,serif" font-size="14.00" fill="#000000">ApplicationRecord</text>
</g>
<!-- User -->
<g id="node4" class="node">
<title>User</title>
<path fill="none" stroke="#000000" d="M237.634,-347.5C237.634,-347.5 405.7415,-347.5 405.7415,-347.5 411.7415,-347.5 417.7415,-353.5 417.7415,-359.5 417.7415,-359.5 417.7415,-533.5 417.7415,-533.5 417.7415,-539.5 411.7415,-545.5 405.7415,-545.5 405.7415,-545.5 237.634,-545.5 237.634,-545.5 231.634,-545.5 225.634,-539.5 225.634,-533.5 225.634,-533.5 225.634,-359.5 225.634,-359.5 225.634,-353.5 231.634,-347.5 237.634,-347.5"/>
<text text-anchor="middle" x="321.6877" y="-530.3" font-family="Times,serif" font-size="14.00" fill="#000000">User</text>
<polyline fill="none" stroke="#000000" points="225.634,-523.5 417.7415,-523.5 "/>
<text text-anchor="start" x="233.634" y="-508.3" font-family="Times,serif" font-size="14.00" fill="#000000">password_digest :varchar(255)</text>
<text text-anchor="start" x="233.634" y="-494.3" font-family="Times,serif" font-size="14.00" fill="#000000">username :varchar(255)</text>
<text text-anchor="start" x="233.634" y="-480.3" font-family="Times,serif" font-size="14.00" fill="#000000">email :varchar(255)</text>
<text text-anchor="start" x="233.634" y="-466.3" font-family="Times,serif" font-size="14.00" fill="#000000">first_name :varchar(255)</text>
<text text-anchor="start" x="233.634" y="-452.3" font-family="Times,serif" font-size="14.00" fill="#000000">second_name :varchar(255)</text>
<text text-anchor="start" x="233.634" y="-438.3" font-family="Times,serif" font-size="14.00" fill="#000000">city :varchar(255)</text>
<text text-anchor="start" x="233.634" y="-424.3" font-family="Times,serif" font-size="14.00" fill="#000000">passport_number :varchar(255)</text>
<text text-anchor="start" x="233.634" y="-410.3" font-family="Times,serif" font-size="14.00" fill="#000000">phone_number :int(11)</text>
<text text-anchor="start" x="233.634" y="-396.3" font-family="Times,serif" font-size="14.00" fill="#000000">date_of_birth :date</text>
<text text-anchor="start" x="233.634" y="-382.3" font-family="Times,serif" font-size="14.00" fill="#000000">created_at :datetime</text>
<text text-anchor="start" x="233.634" y="-368.3" font-family="Times,serif" font-size="14.00" fill="#000000">updated_at :datetime</text>
<text text-anchor="start" x="233.634" y="-354.3" font-family="Times,serif" font-size="14.00" fill="#000000">id :bigint(20)</text>
</g>
<!-- User&#45;&gt;Petition -->
<g id="edge1" class="edge">
<title>User&#45;&gt;Petition</title>
<path fill="none" stroke="#748d21" d="M321.6877,-339.0447C321.6877,-333.0776 321.6877,-327.0188 321.6877,-320.9123"/>
<ellipse fill="none" stroke="#748d21" cx="321.6878" cy="-343.1682" rx="4" ry="4"/>
<polygon fill="#748d21" stroke="#748d21" points="321.6878,-320.5982 326.1877,-310.5981 321.6878,-315.5982 321.6877,-310.5982 321.6877,-310.5982 321.6877,-310.5982 321.6878,-315.5982 317.1877,-310.5982 321.6878,-320.5982 321.6878,-320.5982"/>
</g>
<!-- ActiveStorage::Variant -->
<g id="node5" class="node">
<title>ActiveStorage::Variant</title>
<polygon fill="none" stroke="#000000" points="608.5427,-424.5 608.5427,-468.5 752.8328,-468.5 752.8328,-424.5 608.5427,-424.5"/>
<text text-anchor="middle" x="680.6877" y="-453.3" font-family="Times,serif" font-size="14.00" fill="#000000">ActiveStorage::Variant</text>
<polyline fill="none" stroke="#000000" points="608.5427,-446.5 752.8328,-446.5 "/>
<text text-anchor="middle" x="680.6877" y="-431.3" font-family="Times,serif" font-size="14.00" fill="#000000"> </text>
</g>
<!-- ActiveStorage::Filename -->
<g id="node6" class="node">
<title>ActiveStorage::Filename</title>
<polygon fill="none" stroke="#000000" points="770.7083,-424.5 770.7083,-468.5 926.6672,-468.5 926.6672,-424.5 770.7083,-424.5"/>
<text text-anchor="middle" x="848.6877" y="-453.3" font-family="Times,serif" font-size="14.00" fill="#000000">ActiveStorage::Filename</text>
<polyline fill="none" stroke="#000000" points="770.7083,-446.5 926.6672,-446.5 "/>
<text text-anchor="middle" x="848.6877" y="-431.3" font-family="Times,serif" font-size="14.00" fill="#000000"> </text>
</g>
<!-- ActiveStorage::Variation -->
<g id="node7" class="node">
<title>ActiveStorage::Variation</title>
<polygon fill="none" stroke="#000000" points="945.0979,-424.5 945.0979,-468.5 1100.2776,-468.5 1100.2776,-424.5 945.0979,-424.5"/>
<text text-anchor="middle" x="1022.6877" y="-453.3" font-family="Times,serif" font-size="14.00" fill="#000000">ActiveStorage::Variation</text>
<polyline fill="none" stroke="#000000" points="945.0979,-446.5 1100.2776,-446.5 "/>
<text text-anchor="middle" x="1022.6877" y="-431.3" font-family="Times,serif" font-size="14.00" fill="#000000"> </text>
</g>
<!-- ActiveStorage::Current -->
<g id="node8" class="node">
<title>ActiveStorage::Current</title>
<polygon fill="none" stroke="#000000" points="1174.3738,-133.5 1174.3738,-177.5 1321.0017,-177.5 1321.0017,-133.5 1174.3738,-133.5"/>
<text text-anchor="middle" x="1247.6877" y="-162.3" font-family="Times,serif" font-size="14.00" fill="#000000">ActiveStorage::Current</text>
<polyline fill="none" stroke="#000000" points="1174.3738,-155.5 1321.0017,-155.5 "/>
<text text-anchor="middle" x="1247.6877" y="-140.3" font-family="Times,serif" font-size="14.00" fill="#000000"> </text>
</g>
<!-- ActiveStorage::Filename::Parameters -->
<g id="node9" class="node">
<title>ActiveStorage::Filename::Parameters</title>
<polygon fill="none" stroke="#000000" points="1394.7219,-424.5 1394.7219,-468.5 1620.6536,-468.5 1620.6536,-424.5 1394.7219,-424.5"/>
<text text-anchor="middle" x="1507.6877" y="-453.3" font-family="Times,serif" font-size="14.00" fill="#000000">ActiveStorage::Filename::Parameters</text>
<polyline fill="none" stroke="#000000" points="1394.7219,-446.5 1620.6536,-446.5 "/>
<text text-anchor="middle" x="1507.6877" y="-431.3" font-family="Times,serif" font-size="14.00" fill="#000000"> </text>
</g>
<!-- ActiveStorage::Blob::Identifiable -->
<g id="node10" class="node">
<title>ActiveStorage::Blob::Identifiable</title>
<polygon fill="none" stroke="#000000" stroke-dasharray="1,5" points="1840.816,-464.5 1638.5595,-464.5 1638.5595,-428.5 1840.816,-428.5 1840.816,-464.5"/>
<text text-anchor="middle" x="1739.6877" y="-442.3" font-family="Times,serif" font-size="14.00" fill="#000000">ActiveStorage::Blob::Identifiable</text>
</g>
<!-- ActiveStorage::Blob::Analyzable -->
<g id="node11" class="node">
<title>ActiveStorage::Blob::Analyzable</title>
<polygon fill="none" stroke="#000000" stroke-dasharray="1,5" points="2061.8024,-464.5 1859.5731,-464.5 1859.5731,-428.5 2061.8024,-428.5 2061.8024,-464.5"/>
<text text-anchor="middle" x="1960.6877" y="-442.3" font-family="Times,serif" font-size="14.00" fill="#000000">ActiveStorage::Blob::Analyzable</text>
</g>
<!-- ActiveStorage::Blob::Representable -->
<g id="node12" class="node">
<title>ActiveStorage::Blob::Representable</title>
<polygon fill="none" stroke="#000000" stroke-dasharray="1,5" points="2297.8538,-464.5 2079.5217,-464.5 2079.5217,-428.5 2297.8538,-428.5 2297.8538,-464.5"/>
<text text-anchor="middle" x="2188.6877" y="-442.3" font-family="Times,serif" font-size="14.00" fill="#000000">ActiveStorage::Blob::Representable</text>
</g>
<!-- ActiveStorage::Preview -->
<g id="node13" class="node">
<title>ActiveStorage::Preview</title>
<polygon fill="none" stroke="#000000" points="2315.8186,-424.5 2315.8186,-468.5 2465.5569,-468.5 2465.5569,-424.5 2315.8186,-424.5"/>
<text text-anchor="middle" x="2390.6877" y="-453.3" font-family="Times,serif" font-size="14.00" fill="#000000">ActiveStorage::Preview</text>
<polyline fill="none" stroke="#000000" points="2315.8186,-446.5 2465.5569,-446.5 "/>
<text text-anchor="middle" x="2390.6877" y="-431.3" font-family="Times,serif" font-size="14.00" fill="#000000"> </text>
</g>
<!-- ActiveSupport::CurrentAttributes -->
<g id="node14" class="node">
<title>ActiveSupport::CurrentAttributes</title>
<ellipse fill="none" stroke="#000000" cx="1247.6877" cy="-446.5" rx="128.9682" ry="18"/>
<text text-anchor="middle" x="1247.6877" y="-442.3" font-family="Times,serif" font-size="14.00" fill="#000000">ActiveSupport::CurrentAttributes</text>
</g>
<!-- ActiveSupport::CurrentAttributes&#45;&gt;ActiveStorage::Current -->
<g id="edge2" class="edge">
<title>ActiveSupport::CurrentAttributes&#45;&gt;ActiveStorage::Current</title>
<path fill="none" stroke="#000000" d="M1247.6877,-428.2966C1247.6877,-377.2813 1247.6877,-233.0392 1247.6877,-177.5924"/>
</g>
</g>
</svg>
