<?xml version="1.0" encoding="UTF-8" standalone="no"?>
<!DOCTYPE svg PUBLIC "-//W3C//DTD SVG 1.1//EN"
 "http://www.w3.org/Graphics/SVG/1.1/DTD/svg11.dtd">
<!-- Generated by graphviz version 2.40.1 (20161225.0304)
 -->
<!-- Title: models_diagram Pages: 1 -->
<svg width="2751pt" height="153pt"
 viewBox="0.00 0.00 2750.56 153.00" xmlns="http://www.w3.org/2000/svg" xmlns:xlink="http://www.w3.org/1999/xlink">
<g id="graph0" class="graph" transform="scale(1 1) rotate(0) translate(4 149)">
<title>models_diagram</title>
<polygon fill="transparent" stroke="transparent" points="-4,4 -4,-149 2746.5569,-149 2746.5569,4 -4,4"/>
<!-- _diagram_info -->
<g id="node1" class="node">
<title>_diagram_info</title>
<text text-anchor="start" x="8" y="-130.6" font-family="Times,serif" font-size="13.00" fill="#000000">Models diagram</text>
<text text-anchor="start" x="8" y="-117.6" font-family="Times,serif" font-size="13.00" fill="#000000">Date: Jun 12 2019 &#45; 09:48</text>
<text text-anchor="start" x="8" y="-104.6" font-family="Times,serif" font-size="13.00" fill="#000000">Migration version: 20190315123325</text>
<text text-anchor="start" x="8" y="-91.6" font-family="Times,serif" font-size="13.00" fill="#000000">Generated by RailRoady 1.5.3</text>
<text text-anchor="start" x="8" y="-78.6" font-family="Times,serif" font-size="13.00" fill="#000000">http://railroady.prestonlee.com</text>
</g>
<!-- Petition -->
<g id="node2" class="node">
<title>Petition</title>
<ellipse fill="none" stroke="#000000" cx="252.6877" cy="-18" rx="37.7439" ry="18"/>
<text text-anchor="middle" x="252.6877" y="-13.8" font-family="Times,serif" font-size="14.00" fill="#000000">Petition</text>
</g>
<!-- ApplicationRecord -->
<g id="node3" class="node">
<title>ApplicationRecord</title>
<ellipse fill="none" stroke="#000000" cx="374.6877" cy="-108.5" rx="77.2916" ry="18"/>
<text text-anchor="middle" x="374.6877" y="-104.3" font-family="Times,serif" font-size="14.00" fill="#000000">ApplicationRecord</text>
</g>
<!-- User -->
<g id="node4" class="node">
<title>User</title>
<ellipse fill="none" stroke="#000000" cx="252.6877" cy="-108.5" rx="27" ry="18"/>
<text text-anchor="middle" x="252.6877" y="-104.3" font-family="Times,serif" font-size="14.00" fill="#000000">User</text>
</g>
<!-- User&#45;&gt;Petition -->
<g id="edge1" class="edge">
<title>User&#45;&gt;Petition</title>
<path fill="none" stroke="#7cb444" d="M252.6877,-81.9687C252.6877,-70.8402 252.6877,-57.878 252.6877,-46.5429"/>
<ellipse fill="none" stroke="#7cb444" cx="252.6878" cy="-86.186" rx="4" ry="4"/>
<polygon fill="#7cb444" stroke="#7cb444" points="252.6878,-46.2868 257.1877,-36.2867 252.6878,-41.2868 252.6877,-36.2868 252.6877,-36.2868 252.6877,-36.2868 252.6878,-41.2868 248.1877,-36.2868 252.6878,-46.2868 252.6878,-46.2868"/>
</g>
<!-- ActiveStorage::Variant -->
<g id="node5" class="node">
<title>ActiveStorage::Variant</title>
<polygon fill="none" stroke="#000000" points="614.9781,-126.5 470.3974,-126.5 470.3974,-90.5 614.9781,-90.5 614.9781,-126.5"/>
<text text-anchor="middle" x="542.6877" y="-104.3" font-family="Times,serif" font-size="14.00" fill="#000000">ActiveStorage::Variant</text>
</g>
<!-- ActiveStorage::Blob -->
<g id="node6" class="node">
<title>ActiveStorage::Blob</title>
<ellipse fill="none" stroke="#000000" cx="715.6877" cy="-108.5" rx="82.6131" ry="18"/>
<text text-anchor="middle" x="715.6877" y="-104.3" font-family="Times,serif" font-size="14.00" fill="#000000">ActiveStorage::Blob</text>
</g>
<!-- ActiveStorage::Filename -->
<g id="node7" class="node">
<title>ActiveStorage::Filename</title>
<polygon fill="none" stroke="#000000" points="972.6467,-126.5 816.7288,-126.5 816.7288,-90.5 972.6467,-90.5 972.6467,-126.5"/>
<text text-anchor="middle" x="894.6877" y="-104.3" font-family="Times,serif" font-size="14.00" fill="#000000">ActiveStorage::Filename</text>
</g>
<!-- ActiveStorage::Variation -->
<g id="node8" class="node">
<title>ActiveStorage::Variation</title>
<polygon fill="none" stroke="#000000" points="1146.3675,-126.5 991.008,-126.5 991.008,-90.5 1146.3675,-90.5 1146.3675,-126.5"/>
<text text-anchor="middle" x="1068.6877" y="-104.3" font-family="Times,serif" font-size="14.00" fill="#000000">ActiveStorage::Variation</text>
</g>
<!-- ActiveStorage::Attachment -->
<g id="node9" class="node">
<title>ActiveStorage::Attachment</title>
<ellipse fill="none" stroke="#000000" cx="1270.6877" cy="-108.5" rx="106.7251" ry="18"/>
<text text-anchor="middle" x="1270.6877" y="-104.3" font-family="Times,serif" font-size="14.00" fill="#000000">ActiveStorage::Attachment</text>
</g>
<!-- ActiveStorage::Current -->
<g id="node10" class="node">
<title>ActiveStorage::Current</title>
<polygon fill="none" stroke="#000000" points="1597.8161,-36 1451.5593,-36 1451.5593,0 1597.8161,0 1597.8161,-36"/>
<text text-anchor="middle" x="1524.6877" y="-13.8" font-family="Times,serif" font-size="14.00" fill="#000000">ActiveStorage::Current</text>
</g>
<!-- ActiveStorage::Filename::Parameters -->
<g id="node11" class="node">
<title>ActiveStorage::Filename::Parameters</title>
<polygon fill="none" stroke="#000000" points="1897.6194,-126.5 1671.7561,-126.5 1671.7561,-90.5 1897.6194,-90.5 1897.6194,-126.5"/>
<text text-anchor="middle" x="1784.6877" y="-104.3" font-family="Times,serif" font-size="14.00" fill="#000000">ActiveStorage::Filename::Parameters</text>
</g>
<!-- ActiveStorage::Blob::Identifiable -->
<g id="node12" class="node">
<title>ActiveStorage::Blob::Identifiable</title>
<polygon fill="none" stroke="#000000" stroke-dasharray="1,5" points="2117.816,-126.5 1915.5595,-126.5 1915.5595,-90.5 2117.816,-90.5 2117.816,-126.5"/>
<text text-anchor="middle" x="2016.6877" y="-104.3" font-family="Times,serif" font-size="14.00" fill="#000000">ActiveStorage::Blob::Identifiable</text>
</g>
<!-- ActiveStorage::Blob::Analyzable -->
<g id="node13" class="node">
<title>ActiveStorage::Blob::Analyzable</title>
<polygon fill="none" stroke="#000000" stroke-dasharray="1,5" points="2338.8024,-126.5 2136.5731,-126.5 2136.5731,-90.5 2338.8024,-90.5 2338.8024,-126.5"/>
<text text-anchor="middle" x="2237.6877" y="-104.3" font-family="Times,serif" font-size="14.00" fill="#000000">ActiveStorage::Blob::Analyzable</text>
</g>
<!-- ActiveStorage::Blob::Representable -->
<g id="node14" class="node">
<title>ActiveStorage::Blob::Representable</title>
<polygon fill="none" stroke="#000000" stroke-dasharray="1,5" points="2574.8538,-126.5 2356.5217,-126.5 2356.5217,-90.5 2574.8538,-90.5 2574.8538,-126.5"/>
<text text-anchor="middle" x="2465.6877" y="-104.3" font-family="Times,serif" font-size="14.00" fill="#000000">ActiveStorage::Blob::Representable</text>
</g>
<!-- ActiveStorage::Preview -->
<g id="node15" class="node">
<title>ActiveStorage::Preview</title>
<polygon fill="none" stroke="#000000" points="2742.4263,-126.5 2592.9492,-126.5 2592.9492,-90.5 2742.4263,-90.5 2742.4263,-126.5"/>
<text text-anchor="middle" x="2667.6877" y="-104.3" font-family="Times,serif" font-size="14.00" fill="#000000">ActiveStorage::Preview</text>
</g>
<!-- ActiveSupport::CurrentAttributes -->
<g id="node16" class="node">
<title>ActiveSupport::CurrentAttributes</title>
<ellipse fill="none" stroke="#000000" cx="1524.6877" cy="-108.5" rx="128.9682" ry="18"/>
<text text-anchor="middle" x="1524.6877" y="-104.3" font-family="Times,serif" font-size="14.00" fill="#000000">ActiveSupport::CurrentAttributes</text>
</g>
<!-- ActiveSupport::CurrentAttributes&#45;&gt;ActiveStorage::Current -->
<g id="edge2" class="edge">
<title>ActiveSupport::CurrentAttributes&#45;&gt;ActiveStorage::Current</title>
<path fill="none" stroke="#000000" d="M1524.6877,-90.186C1524.6877,-74.4846 1524.6877,-51.9803 1524.6877,-36.2868"/>
</g>
</g>
</svg>
